# xmcd CD database file
#
# Track frame offsets:
#	150
#	57598
#	84051
#	101265
#	118958
#	150270
#
# Disc length: 2253 seconds
#
# Revision: 0
# Processed by: cddbd v1.5.2PL0 Copyright (c) Steve Scherf et al.
# Submitted via: CDex 1.70beta2
#
DISCID=3c08cb06
DTITLE=The new earth group - The new earth group
DYEAR=2008
DGENRE=Jazz
TTITLE0=De notenkraker boom suite
TTITLE1=Ode to an End
TTITLE2=A beginning
TTITLE3=A new world
TTITLE4=In search of the 72 names of GOD
TTITLE5=Electric Mario's exodus
EXTD=YEAR: 2008
EXTT0=
EXTT1=
EXTT2=
EXTT3=
EXTT4=
EXTT5=
PLAYORDER=
